<?xml version="1.0" standalone="no"?><svg xmlns="http://www.w3.org/2000/svg" viewBox="0 0 1440 320"><path fill="#9A999D" fill-opacity="1" d="M0,96L8.3,80C16.6,64,33,32,50,53.3C66.2,75,83,149,99,181.3C115.9,213,132,203,149,170.7C165.5,139,182,85,199,58.7C215.2,32,232,32,248,74.7C264.8,117,281,203,298,245.3C314.5,288,331,288,348,245.3C364.1,203,381,117,397,74.7C413.8,32,430,32,447,37.3C463.4,43,480,53,497,69.3C513.1,85,530,107,546,117.3C562.8,128,579,128,596,138.7C612.4,149,629,171,646,154.7C662.1,139,679,85,695,90.7C711.7,96,728,160,745,197.3C761.4,235,778,245,794,213.3C811,181,828,107,844,90.7C860.7,75,877,117,894,128C910.3,139,927,117,943,96C960,75,977,53,993,85.3C1009.7,117,1026,203,1043,234.7C1059.3,267,1076,245,1092,234.7C1109,224,1126,224,1142,218.7C1158.6,213,1175,203,1192,213.3C1208.3,224,1225,256,1241,266.7C1257.9,277,1274,267,1291,229.3C1307.6,192,1324,128,1341,90.7C1357.2,53,1374,43,1390,85.3C1406.9,128,1423,224,1432,272L1440,320L1440,320L1431.7,320C1423.4,320,1407,320,1390,320C1373.8,320,1357,320,1341,320C1324.1,320,1308,320,1291,320C1274.5,320,1258,320,1241,320C1224.8,320,1208,320,1192,320C1175.2,320,1159,320,1142,320C1125.5,320,1109,320,1092,320C1075.9,320,1059,320,1043,320C1026.2,320,1010,320,993,320C976.6,320,960,320,943,320C926.9,320,910,320,894,320C877.2,320,861,320,844,320C827.6,320,811,320,794,320C777.9,320,761,320,745,320C728.3,320,712,320,695,320C678.6,320,662,320,646,320C629,320,612,320,596,320C579.3,320,563,320,546,320C529.7,320,513,320,497,320C480,320,463,320,447,320C430.3,320,414,320,397,320C380.7,320,364,320,348,320C331,320,314,320,298,320C281.4,320,265,320,248,320C231.7,320,215,320,199,320C182.1,320,166,320,149,320C132.4,320,116,320,99,320C82.8,320,66,320,50,320C33.1,320,17,320,8,320L0,320Z"></path></svg>